<?xml version="1.0" encoding="UTF-8"?>
<svg width="92px" height="92px" viewBox="0 0 92 92" version="1.1" xmlns="http://www.w3.org/2000/svg" xmlns:xlink="http://www.w3.org/1999/xlink">
    <!-- Generator: Sketch 46.2 (44496) - http://www.bohemiancoding.com/sketch -->
    <title>Personal Information Copy 2</title>
    <desc>Created with Sketch.</desc>
    <defs>
        <polygon id="path-1" points="0 67.6017 65.322 67.6017 65.322 -0.0003 0 -0.0003"></polygon>
    </defs>
    <g id="Symbols" stroke="none" stroke-width="1" fill="none" fill-rule="evenodd">
        <g id="Personal-Information-Copy-2">
            <g id="Page-1" transform="translate(14.000000, 9.000000)">
                <path d="M13.4951,61.963 C9.9861,60.801 6.5401,58.467 4.4251,55.343 C2.8721,53.05 2.2311,49.896 3.5591,47.46 C4.0611,46.541 4.8231,45.744 5.0701,44.723 C5.3541,43.549 4.8821,42.292 4.1191,41.366 C1.8491,38.609 -0.4889,38.959 1.3131,34.81 C2.3711,32.377 4.8131,30.778 6.2291,28.592 C8.3461,25.325 6.6211,23.745 6.7941,20.173 C7.2291,11.214 17.4761,13.398 23.1571,14.012 C31.6471,14.93 40.3401,16.13 48.8141,14.423 C51.8691,13.808 55.3361,12.573 57.8521,14.442 C59.6751,15.797 60.2241,18.374 59.9621,20.657 C59.6981,22.941 58.7801,25.086 58.2321,27.316 C57.5741,29.988 57.4551,32.825 58.1131,35.498 C58.6991,37.881 59.8861,40.09 60.3461,42.502 C61.6571,49.373 56.5811,56.172 50.3321,59.076 C45.5671,61.291 40.2981,61.747 35.1281,61.831 C30.8761,61.901 26.6511,61.732 22.4461,62.504 C19.2911,63.084 16.2631,62.879 13.4951,61.963 Z" id="Fill-1" fill="#F2F3F3"></path>
                <mask id="mask-2" fill="white">
                    <use xlink:href="#path-1"></use>
                </mask>
                <g id="Clip-4"></g>
                <polygon id="Fill-3" fill="#FFFFFF" mask="url(#mask-2)" points="10.119 66.5747 54.805 66.5747 54.805 10.5047 10.119 10.5047"></polygon>
                <path d="M19.5039,67.6017 L10.1179,67.6017 C9.5659,67.6017 9.1179,67.1427 9.1179,66.5757 L9.1179,10.5037 C9.1179,9.9367 9.5659,9.4777 10.1179,9.4777 L54.8049,9.4777 C55.3579,9.4777 55.8049,9.9367 55.8049,10.5037 L55.8049,26.8437 C55.8049,27.4117 55.3579,27.8707 54.8049,27.8707 C54.2519,27.8707 53.8049,27.4117 53.8049,26.8437 L53.8049,11.5317 L11.1179,11.5317 L11.1179,65.5477 L19.5039,65.5477 C20.0569,65.5477 20.5039,66.0077 20.5039,66.5757 C20.5039,67.1427 20.0569,67.6017 19.5039,67.6017 M54.8049,67.6017 L24.5039,67.6017 C23.9509,67.6017 23.5039,67.1427 23.5039,66.5757 C23.5039,66.0077 23.9509,65.5477 24.5039,65.5477 L53.8049,65.5477 L53.8049,31.9777 C53.8049,31.4097 54.2519,30.9507 54.8049,30.9507 C55.3579,30.9507 55.8049,31.4097 55.8049,31.9777 L55.8049,66.5757 C55.8049,67.1427 55.3579,67.6017 54.8049,67.6017" id="Fill-5" fill="#3D96E0" mask="url(#mask-2)"></path>
                <path d="M47.4941,27.0978 L15.5241,27.0978 C14.9721,27.0978 14.5241,26.6508 14.5241,26.0978 C14.5241,25.5448 14.9721,25.0978 15.5241,25.0978 L47.4941,25.0978 C48.0471,25.0978 48.4941,25.5448 48.4941,26.0978 C48.4941,26.6508 48.0471,27.0978 47.4941,27.0978" id="Fill-6" fill="#B4D7FF" mask="url(#mask-2)"></path>
                <path d="M29.1426,21.1203 L15.5246,21.1203 C14.9716,21.1203 14.5246,20.6733 14.5246,20.1203 C14.5246,19.5673 14.9716,19.1203 15.5246,19.1203 L29.1426,19.1203 C29.6956,19.1203 30.1426,19.5673 30.1426,20.1203 C30.1426,20.6733 29.6956,21.1203 29.1426,21.1203" id="Fill-7" fill="#F7BEBE" mask="url(#mask-2)"></path>
                <path d="M39.998,14.1837 L24.498,14.1837 C23.809,14.1837 23.248,13.6237 23.248,12.9337 L23.248,8.1837 C23.248,7.4937 23.809,6.9337 24.498,6.9337 L39.998,6.9337 C40.688,6.9337 41.248,7.4937 41.248,8.1837 L41.248,12.9337 C41.248,13.6237 40.688,14.1837 39.998,14.1837" id="Fill-8" fill="#3D96E0" mask="url(#mask-2)"></path>
                <path d="M36.957,7.9015 C36.957,10.5025 34.85,12.6105 32.248,12.6105 C29.647,12.6105 27.539,10.5025 27.539,7.9015 C27.539,5.3005 29.647,3.1925 32.248,3.1925 C34.85,3.1925 36.957,5.3005 36.957,7.9015" id="Fill-9" fill="#3D96E0" mask="url(#mask-2)"></path>
                <path d="M15.21,37.9167 L19.97,37.9167 L19.97,33.1567 L15.21,33.1567 L15.21,37.9167 Z M14.09,39.0377 L21.09,39.0377 L21.09,32.0377 L14.09,32.0377 L14.09,39.0377 Z" id="Fill-10" fill="#A0D3F9" mask="url(#mask-2)"></path>
                <polyline id="Fill-11" fill="#FFFFFF" mask="url(#mask-2)" points="16.1201 35.6144 17.1101 36.5114 19.0591 34.5624"></polyline>
                <path d="M17.1104,37.0724 C16.9764,37.0724 16.8414,37.0244 16.7354,36.9274 L15.7444,36.0304 C15.5144,35.8224 15.4974,35.4684 15.7054,35.2394 C15.9124,35.0094 16.2654,34.9924 16.4954,35.2004 L17.0914,35.7394 L18.6644,34.1674 C18.8824,33.9484 19.2374,33.9484 19.4564,34.1674 C19.6744,34.3854 19.6744,34.7404 19.4564,34.9594 L17.5064,36.9084 C17.3974,37.0164 17.2554,37.0724 17.1104,37.0724" id="Fill-12" fill="#70D307" mask="url(#mask-2)"></path>
                <path d="M15.21,48.9267 L19.97,48.9267 L19.97,44.1657 L15.21,44.1657 L15.21,48.9267 Z M14.09,50.0467 L21.09,50.0467 L21.09,43.0467 L14.09,43.0467 L14.09,50.0467 Z" id="Fill-13" fill="#A0D3F9" mask="url(#mask-2)"></path>
                <polyline id="Fill-14" fill="#FFFFFF" mask="url(#mask-2)" points="16.1201 46.6242 17.1101 47.5212 19.0591 45.5722"></polyline>
                <path d="M17.1104,48.0822 C16.9764,48.0822 16.8414,48.0332 16.7354,47.9362 L15.7444,47.0392 C15.5144,46.8312 15.4974,46.4782 15.7054,46.2482 C15.9124,46.0192 16.2654,46.0012 16.4954,46.2092 L17.0914,46.7492 L18.6644,45.1762 C18.8824,44.9572 19.2374,44.9572 19.4564,45.1762 C19.6744,45.3942 19.6744,45.7492 19.4564,45.9682 L17.5064,47.9182 C17.3974,48.0262 17.2554,48.0822 17.1104,48.0822" id="Fill-15" fill="#70D307" mask="url(#mask-2)"></path>
                <path d="M15.21,59.4377 L19.97,59.4377 L19.97,54.6777 L15.21,54.6777 L15.21,59.4377 Z M14.09,60.5577 L21.09,60.5577 L21.09,53.5577 L14.09,53.5577 L14.09,60.5577 Z" id="Fill-16" fill="#A0D3F9" mask="url(#mask-2)"></path>
                <path d="M46.8506,36.838 L46.8386,36.838 L27.3146,36.736 C26.4076,36.732 25.6756,36.168 25.6826,35.478 C25.6896,34.79 26.4236,34.236 27.3266,34.236 L27.3376,34.236 L46.8626,34.338 C47.7706,34.343 48.5006,34.906 48.4946,35.597 C48.4886,36.284 47.7536,36.838 46.8506,36.838" id="Fill-17" fill="#97D0FF" mask="url(#mask-2)"></path>
                <path d="M46.8506,47.8478 L46.8386,47.8478 L27.3146,47.7448 C26.4076,47.7408 25.6756,47.1768 25.6826,46.4868 C25.6896,45.7988 26.4236,45.2448 27.3266,45.2448 L27.3376,45.2448 L46.8626,45.3478 C47.7706,45.3528 48.5006,45.9158 48.4946,46.6068 C48.4886,47.2938 47.7536,47.8478 46.8506,47.8478" id="Fill-18" fill="#97D0FF" mask="url(#mask-2)"></path>
                <path d="M46.8506,58.3585 L46.8386,58.3585 L27.3146,58.2565 C26.4076,58.2525 25.6756,57.6885 25.6826,56.9985 C25.6896,56.3105 26.4236,55.7565 27.3266,55.7565 L27.3376,55.7565 L46.8626,55.8585 C47.7706,55.8635 48.5006,56.4265 48.4946,57.1175 C48.4886,57.8045 47.7536,58.3585 46.8506,58.3585" id="Fill-19" fill="#97D0FF" mask="url(#mask-2)"></path>
                <path d="M34.2295,7.9015 C34.2295,8.9965 33.3425,9.8825 32.2485,9.8825 C31.1545,9.8825 30.2675,8.9965 30.2675,7.9015 C30.2675,6.8075 31.1545,5.9215 32.2485,5.9215 C33.3425,5.9215 34.2295,6.8075 34.2295,7.9015" id="Fill-20" fill="#FFFFFF" mask="url(#mask-2)"></path>
                <path d="M4.4854,24.5265 C4.4854,25.5875 3.5924,26.4465 2.4924,26.4465 C1.3914,26.4465 0.5004,25.5875 0.5004,24.5265 C0.5004,23.4655 1.3914,22.6065 2.4924,22.6065 C3.5924,22.6065 4.4854,23.4655 4.4854,24.5265" id="Fill-21" fill="#FFFFFF" mask="url(#mask-2)"></path>
                <path d="M2.4922,23.1066 C1.6692,23.1066 1.0002,23.7436 1.0002,24.5266 C1.0002,25.3096 1.6692,25.9466 2.4922,25.9466 C3.3152,25.9466 3.9852,25.3096 3.9852,24.5266 C3.9852,23.7436 3.3152,23.1066 2.4922,23.1066 M2.4922,26.9466 C1.1182,26.9466 0.0002,25.8606 0.0002,24.5266 C0.0002,23.1926 1.1182,22.1066 2.4922,22.1066 C3.8672,22.1066 4.9852,23.1926 4.9852,24.5266 C4.9852,25.8606 3.8672,26.9466 2.4922,26.9466" id="Fill-22" fill="#00F2FE" mask="url(#mask-2)"></path>
                <path d="M49.1895,3.8761 C49.1355,3.8761 49.0825,3.8671 49.0285,3.8501 L44.8305,2.4181 C44.5685,2.3281 44.4285,2.0441 44.5175,1.7831 C44.6075,1.5211 44.8905,1.3851 45.1525,1.4711 L49.3505,2.9021 C49.6125,2.9921 49.7515,3.2761 49.6635,3.5371 C49.5915,3.7451 49.3975,3.8761 49.1895,3.8761" id="Fill-23" fill="#FF8D00" mask="url(#mask-2)"></path>
                <path d="M46.4316,5.3204 C46.3836,5.3204 46.3336,5.3134 46.2856,5.2994 C46.0216,5.2174 45.8726,4.9384 45.9526,4.6744 L47.2706,0.3544 C47.3516,0.0904 47.6316,-0.0586 47.8946,0.0214 C48.1596,0.1024 48.3076,0.3824 48.2276,0.6454 L46.9106,4.9664 C46.8436,5.1814 46.6466,5.3204 46.4316,5.3204" id="Fill-24" fill="#FF8D00" mask="url(#mask-2)"></path>
                <polygon id="Fill-25" fill="#FFFFFF" mask="url(#mask-2)" points="59.6865 47.0695 61.8515 44.3015 64.6205 46.4665 62.4555 49.2355"></polygon>
                <path d="M61.9365,45.0031 L60.3875,46.9831 L62.3705,48.5341 L63.9175,46.5531 L61.9365,45.0031 Z M58.9855,47.1541 L61.7655,43.6011 L65.3215,46.3801 L62.5405,49.9371 L58.9855,47.1541 Z" id="Fill-26" fill="#7960FF" mask="url(#mask-2)"></path>
            </g>
        </g>
    </g>
</svg>