<?xml version="1.0" encoding="UTF-8" standalone="no"?>
<svg width="18px" height="18px" viewBox="0 0 18 18" version="1.1" xmlns="http://www.w3.org/2000/svg" xmlns:xlink="http://www.w3.org/1999/xlink" xmlns:sketch="http://www.bohemiancoding.com/sketch/ns">
    <!-- Generator: Sketch 3.3.3 (12081) - http://www.bohemiancoding.com/sketch -->
    <title>Add CO Copy 3</title>
    <desc>Created with Sketch.</desc>
    <defs></defs>
    <g id="Page-1" stroke="none" stroke-width="1" fill="none" fill-rule="evenodd" sketch:type="MSPage">
        <g id="Employee---Direct-Deposit-Allocation---accounts-payable-without-payroll-added" sketch:type="MSArtboardGroup" transform="translate(-3244.000000, -544.000000)" fill="#557185">
            <path d="M3253,562 C3257.97025,562 3262,557.97025 3262,553 C3262,548.02975 3257.97025,544 3253,544 C3248.02975,544 3244,548.02975 3244,553 C3244,557.97025 3248.02975,562 3253,562 L3253,562 Z M3253,561 C3248.58188,561 3245,557.418116 3245,553 C3245,548.581884 3248.58188,545 3253,545 C3257.41812,545 3261,548.581884 3261,553 C3261,557.418116 3257.41812,561 3253,561 L3253,561 Z M3258,553.71441 L3253.71441,553.71441 L3253.71441,558 L3252.28559,558 L3252.28559,553.71441 L3248,553.71441 L3248,552.28559 L3252.28559,552.28559 L3252.28559,548 L3253.71441,548 L3253.71441,552.28559 L3258,552.28559 L3258,553.71441 L3258,553.71441 Z" id="Add-CO-Copy-3" sketch:type="MSShapeGroup"></path>
        </g>
    </g>
</svg>