<?xml version="1.0" encoding="UTF-8" standalone="no"?>
<svg width="92px" height="92px" viewBox="0 0 92 92" version="1.1" xmlns="http://www.w3.org/2000/svg" xmlns:xlink="http://www.w3.org/1999/xlink">
    <!-- Generator: Sketch 41.2 (35397) - http://www.bohemiancoding.com/sketch -->
    <title>Personal Information icon</title>
    <defs>
        <polygon id="path-1" points="0 65.9412794 62.0627538 65.9412794 62.0627538 0.000485294118 0 0.000485294118"></polygon>
    </defs>
    <g id="Symbols" stroke="none" stroke-width="1" fill="none" fill-rule="evenodd">
        <g id="Personal-Information-Copy-2">
            <g id="Page-1" transform="translate(17.000000, 10.000000)">
                <path d="M44.1687185,60.0375794 C40.7105031,60.7189324 36.6145338,60.1152265 33.4325492,59.7794029 C25.9365185,58.9893441 18.4404877,58.1992853 10.9444569,57.4092265 C7.36702615,57.0326382 5.36459538,53.3647853 5.44891846,49.4659324 C5.48478,47.7974912 6.37744154,46.3940206 6.30378,44.7479029 C6.19425692,42.3408441 4.52814923,41.2974618 3.13148769,39.8998147 C2.44818,39.21555 1.86082615,38.2536971 1.94999538,37.2161382 C2.11961077,35.2322559 4.52621077,34.3179618 4.75882615,32.3428147 C4.99919538,30.3026382 2.81454923,28.9661382 2.36967231,26.97255 C1.93836462,25.0430206 3.44067231,22.6670206 4.01930308,20.9267559 C4.58048769,19.2350206 5.18625692,17.6743147 6.29408769,16.3484912 C8.65901077,13.5163147 11.8739492,12.9883147 15.1150569,12.7835206 C18.2214415,12.5874618 21.3268569,12.3904324 24.4322723,12.1943735 C32.7453646,11.6683147 43.2964108,7.51516765 50.70618,13.4454618 C52.1823185,14.6266676 53.3957954,16.3086971 53.6633031,18.2508441 C53.9172415,20.1027265 54.2671338,21.8691971 53.21358,23.5318147 C52.5971492,24.5053147 51.7829954,25.3283735 51.2130877,26.3329324 C49.8484108,28.7361088 50.0800569,31.8264618 50.9504262,34.4751971 C51.8217646,37.1249029 53.2630108,39.5203147 54.2797338,42.1108147 C55.2964569,44.7013147 55.8702415,47.6751971 54.9242723,50.2957853 C53.9841185,52.9047265 51.8644108,53.9714029 50.17698,55.8863735 C48.4071646,57.8945206 46.8874108,59.5018147 44.1687185,60.0375794 Z" id="Fill-1" fill="#EFEFEF"></path>
                <mask id="mask-2" fill="white">
                    <use xlink:href="#path-1"></use>
                </mask>
                <g id="Clip-4"></g>
                <polygon id="Fill-3" fill="#FFFFFF" mask="url(#mask-2)" points="8.20938462 64.9706912 49.8911538 64.9706912 49.8911538 9.55204412 8.20938462 9.55204412"></polygon>
                <path d="M49.8907662,36.9240882 C49.3547815,36.9240882 48.9215354,36.4902353 48.9215354,35.9535 L48.9215354,10.5221471 L18.1019354,10.5221471 C17.5659508,10.5221471 17.1327046,10.0882941 17.1327046,9.55155882 C17.1327046,9.01482353 17.5659508,8.58097059 18.1019354,8.58097059 L49.8907662,8.58097059 C50.4267508,8.58097059 50.8599969,9.01482353 50.8599969,9.55155882 L50.8599969,35.9535 C50.8599969,36.4902353 50.4267508,36.9240882 49.8907662,36.9240882 M11.0207354,65.9407941 L8.20899692,65.9407941 C7.67301231,65.9407941 7.23976615,65.5069412 7.23976615,64.9702059 L7.23976615,9.55155882 C7.23976615,9.01482353 7.67301231,8.58097059 8.20899692,8.58097059 L13.2557815,8.58097059 C13.7917662,8.58097059 14.2250123,9.01482353 14.2250123,9.55155882 C14.2250123,10.0882941 13.7917662,10.5221471 13.2557815,10.5221471 L9.17822769,10.5221471 L9.17822769,63.9996176 L11.0207354,63.9996176 C11.55672,63.9996176 11.9899662,64.4344412 11.9899662,64.9702059 C11.9899662,65.5069412 11.55672,65.9407941 11.0207354,65.9407941 M49.8907662,65.9407941 L15.8668892,65.9407941 C15.3318738,65.9407941 14.8976585,65.5069412 14.8976585,64.9702059 C14.8976585,64.4344412 15.3318738,63.9996176 15.8668892,63.9996176 L48.9215354,63.9996176 L48.9215354,40.8064412 C48.9215354,40.2697059 49.3547815,39.8358529 49.8907662,39.8358529 C50.4267508,39.8358529 50.8599969,40.2697059 50.8599969,40.8064412 L50.8599969,64.9702059 C50.8599969,65.5069412 50.4267508,65.9407941 49.8907662,65.9407941" id="Fill-5" fill="#6375CC" mask="url(#mask-2)"></path>
                <path d="M43.8964615,40.5448676 L26.1198,40.5448676 C25.5838154,40.5448676 25.1505692,40.1110147 25.1505692,39.5742794 C25.1505692,39.0375441 25.5838154,38.6036912 26.1198,38.6036912 L43.8964615,38.6036912 C44.4324462,38.6036912 44.8656923,39.0375441 44.8656923,39.5742794 C44.8656923,40.1110147 44.4324462,40.5448676 43.8964615,40.5448676" id="Fill-6" fill="#B4D7FF" mask="url(#mask-2)"></path>
                <path d="M43.8964615,46.1418618 L26.1198,46.1418618 C25.5838154,46.1418618 25.1505692,45.7080088 25.1505692,45.1712735 C25.1505692,44.6345382 25.5838154,44.2006853 26.1198,44.2006853 L43.8964615,44.2006853 C44.4324462,44.2006853 44.8656923,44.6345382 44.8656923,45.1712735 C44.8656923,45.7080088 44.4324462,46.1418618 43.8964615,46.1418618" id="Fill-7" fill="#B4D7FF" mask="url(#mask-2)"></path>
                <path d="M40.1104523,51.7398265 L26.1196062,51.7398265 C25.5845908,51.7398265 25.1503754,51.3059735 25.1503754,50.7692382 C25.1503754,50.2325029 25.5845908,49.79865 26.1196062,49.79865 L40.1104523,49.79865 C40.6464369,49.79865 41.0796831,50.2325029 41.0796831,50.7692382 C41.0796831,51.3059735 40.6464369,51.7398265 40.1104523,51.7398265" id="Fill-8" fill="#B4D7FF" mask="url(#mask-2)"></path>
                <path d="M21.9137262,40.5448676 L14.21028,40.5448676 C13.6742954,40.5448676 13.2410492,40.1110147 13.2410492,39.5742794 C13.2410492,39.0375441 13.6742954,38.6036912 14.21028,38.6036912 L21.9137262,38.6036912 C22.4497108,38.6036912 22.8829569,39.0375441 22.8829569,39.5742794 C22.8829569,40.1110147 22.4497108,40.5448676 21.9137262,40.5448676" id="Fill-9" fill="#B4D7FF" mask="url(#mask-2)"></path>
                <path d="M20.9444954,30.2535265 L14.21028,30.2535265 C13.6742954,30.2535265 13.2410492,29.8196735 13.2410492,29.2829382 C13.2410492,28.7462029 13.6742954,28.31235 14.21028,28.31235 L20.9444954,28.31235 C21.48048,28.31235 21.9137262,28.7462029 21.9137262,29.2829382 C21.9137262,29.8196735 21.48048,30.2535265 20.9444954,30.2535265" id="Fill-10" fill="#F8BEBE" mask="url(#mask-2)"></path>
                <path d="M21.1649954,46.1418618 L14.2097954,46.1418618 C13.6738108,46.1418618 13.2405646,45.7080088 13.2405646,45.1712735 C13.2405646,44.6345382 13.6738108,44.2006853 14.2097954,44.2006853 L21.1649954,44.2006853 C21.70098,44.2006853 22.1342262,44.6345382 22.1342262,45.1712735 C22.1342262,45.7080088 21.70098,46.1418618 21.1649954,46.1418618" id="Fill-11" fill="#B4D7FF" mask="url(#mask-2)"></path>
                <path d="M19.6042431,18.5992853 C19.6042431,19.6911971 18.7203046,20.5763735 17.62992,20.5763735 C16.5395354,20.5763735 15.6555969,19.6911971 15.6555969,18.5992853 C15.6555969,17.5073735 16.5395354,16.6221971 17.62992,16.6221971 C18.7203046,16.6221971 19.6042431,17.5073735 19.6042431,18.5992853" id="Fill-12" fill="#6375CC" mask="url(#mask-2)"></path>
                <path d="M21.6766523,25.3991294 C21.6766523,23.1929824 19.89036,21.4041882 17.6872985,21.4041882 C15.4842369,21.4041882 13.6979446,23.1929824 13.6979446,25.3991294 L21.6766523,25.3991294 Z" id="Fill-13" fill="#6375CC" mask="url(#mask-2)"></path>
                <path d="M61.5783323,31.3647529 C61.4717169,31.3647529 61.3631631,31.3298118 61.2749631,31.2579882 L57.9262708,28.5558706 C57.7188554,28.3879588 57.6849323,28.0822235 57.8526092,27.8735471 C58.0212554,27.6639 58.3275323,27.6328412 58.5339785,27.7997824 L61.8817015,30.5009294 C62.0900862,30.6698118 62.12304,30.9755471 61.9563323,31.1832529 C61.8603785,31.3036059 61.71984,31.3647529 61.5783323,31.3647529" id="Fill-14" fill="#88D5F9" mask="url(#mask-2)"></path>
                <path d="M58.5873831,31.7647324 C58.4856138,31.7647324 58.3828754,31.7327029 58.2956446,31.6667029 C58.0824138,31.5055853 58.0397677,31.2017912 58.20066,30.9872912 L60.8350292,27.4863794 C60.99786,27.2709088 61.3031677,27.2311147 61.51446,27.3902912 C61.7276908,27.5514088 61.7703369,27.8561735 61.6094446,28.0697029 L58.9741062,31.5715853 C58.8791215,31.6987324 58.7337369,31.7647324 58.5873831,31.7647324" id="Fill-15" fill="#88D5F9" mask="url(#mask-2)"></path>
                <polygon id="Fill-16" fill="#FFFFFF" mask="url(#mask-2)" points="17.9416246 5.32231765 14.9912862 3.61699412 16.6951938 0.662523529 19.6445631 2.36784706"></polygon>
                <path d="M15.6534646,3.43976471 L17.7644492,4.65979412 L18.9837415,2.54488235 L16.8727569,1.32485294 L15.6534646,3.43976471 Z M18.1182185,5.98464706 L14.3304646,3.79402941 L16.5170492,0 L20.3067415,2.19061765 L18.1182185,5.98464706 Z" id="Fill-17" fill="#FF8D00" mask="url(#mask-2)"></path>
                <path d="M4.34661231,20.1703765 C4.34661231,21.1992 3.48205846,22.0339059 2.41493538,22.0339059 C1.34878154,22.0339059 0.484227692,21.1992 0.484227692,20.1703765 C0.484227692,19.1415529 1.34878154,18.3068471 2.41493538,18.3068471 C3.48205846,18.3068471 4.34661231,19.1415529 4.34661231,20.1703765" id="Fill-18" fill="#FFFFFF" mask="url(#mask-2)"></path>
                <path d="M2.41551692,18.7919471 C1.61784,18.7919471 0.969424615,19.4102118 0.969424615,20.1701824 C0.969424615,20.9301529 1.61784,21.5484176 2.41551692,21.5484176 C3.21319385,21.5484176 3.86160923,20.9301529 3.86160923,20.1701824 C3.86160923,19.4102118 3.21319385,18.7919471 2.41551692,18.7919471 M2.41551692,22.5190059 C1.08379385,22.5190059 0.000193846154,21.4649471 0.000193846154,20.1701824 C0.000193846154,18.8754176 1.08379385,17.8213588 2.41551692,17.8213588 C3.74724,17.8213588 4.83084,18.8754176 4.83084,20.1701824 C4.83084,21.4649471 3.74724,22.5190059 2.41551692,22.5190059" id="Fill-19" fill="#7AC943" mask="url(#mask-2)"></path>
                <path d="M55.4051077,9.98317941 C55.4051077,13.9179441 52.2202154,17.1072971 48.2909538,17.1072971 C44.3616923,17.1072971 41.1768,13.9179441 41.1768,9.98317941 C41.1768,6.04841471 44.3616923,2.85906176 48.2909538,2.85906176 C52.2202154,2.85906176 55.4051077,6.04841471 55.4051077,9.98317941" id="Fill-20" fill="#1366FF" mask="url(#mask-2)"></path>
                <path d="M48.2911477,3.34406471 C44.6361785,3.34406471 41.6616092,6.32182941 41.6616092,9.98385882 C41.6616092,13.6439471 44.6361785,16.6226824 48.2911477,16.6226824 C51.9461169,16.6226824 54.9206862,13.6439471 54.9206862,9.98385882 C54.9206862,6.32182941 51.9461169,3.34406471 48.2911477,3.34406471 M48.2911477,17.5932706 C44.1011631,17.5932706 40.6923785,14.1797118 40.6923785,9.98385882 C40.6923785,5.78800588 44.1011631,2.37347647 48.2911477,2.37347647 C52.4811323,2.37347647 55.8899169,5.78800588 55.8899169,9.98385882 C55.8899169,14.1797118 52.4811323,17.5932706 48.2911477,17.5932706" id="Fill-21" fill="#00EFE0" mask="url(#mask-2)"></path>
                <path d="M48.2910508,12.7129588 L48.2910508,9.98269412" id="Fill-22" fill="#FFFFFF" mask="url(#mask-2)"></path>
                <path d="M48.2911477,13.5873618 C47.80944,13.5873618 47.41884,13.1962147 47.41884,12.7138324 L47.41884,9.98356765 C47.41884,9.50118529 47.80944,9.11003824 48.2911477,9.11003824 C48.7728554,9.11003824 49.1634554,9.50118529 49.1634554,9.98356765 L49.1634554,12.7138324 C49.1634554,13.1962147 48.7728554,13.5873618 48.2911477,13.5873618" id="Fill-23" fill="#FFFFFF" mask="url(#mask-2)"></path>
                <path id="Fill-24" fill="#FFFFFF" mask="url(#mask-2)"></path>
                <path d="M48.2930862,8.12683235 C48.0604708,8.12683235 47.8375477,8.03850882 47.6727785,7.87350882 C47.5080092,7.70850882 47.4217477,7.48624412 47.4217477,7.25330294 C47.4217477,7.01939118 47.5080092,6.79712647 47.6727785,6.63212647 C48.0023169,6.31183235 48.5741631,6.31183235 48.9037015,6.63212647 C49.0684708,6.79712647 49.1653938,7.01939118 49.1653938,7.25330294 C49.1653938,7.48624412 49.0684708,7.70850882 48.9037015,7.87350882 C48.7389323,8.03850882 48.5257015,8.12683235 48.2930862,8.12683235" id="Fill-25" fill="#FFFFFF" mask="url(#mask-2)"></path>
            </g>
        </g>
    </g>
</svg>
