<?xml version="1.0" encoding="UTF-8" standalone="no"?>
<svg width="18px" height="18px" viewBox="0 0 18 18" version="1.1" xmlns="http://www.w3.org/2000/svg" xmlns:xlink="http://www.w3.org/1999/xlink" xmlns:sketch="http://www.bohemiancoding.com/sketch/ns">
    <!-- Generator: Sketch 3.3.3 (12081) - http://www.bohemiancoding.com/sketch -->
    <title>Refresh CO Copy 4</title>
    <desc>Created with Sketch.</desc>
    <defs></defs>
    <g id="Page-1" stroke="none" stroke-width="1" fill="none" fill-rule="evenodd" sketch:type="MSPage">
        <g id="Employee---Direct-Deposit-Allocation---accounts-payable-without-payroll-added" sketch:type="MSArtboardGroup" transform="translate(-4873.000000, -821.000000)" fill="#557185">
            <path d="M4882,839 C4886.97025,839 4891,834.97025 4891,830 C4891,825.02975 4886.97025,821 4882,821 C4877.02975,821 4873,825.02975 4873,830 C4873,834.97025 4877.02975,839 4882,839 L4882,839 Z M4881.955,837.91 C4877.56151,837.91 4874,834.348491 4874,829.955 C4874,825.561508 4877.56151,822 4881.955,822 C4886.34849,822 4889.91,825.561508 4889.91,829.955 C4889.91,834.348491 4886.34849,837.91 4881.955,837.91 L4881.955,837.91 Z M4882.1925,825.205678 C4880.53,825.205678 4879.0575,826.155678 4878.2975,827.605786 L4877.205,826.455607 L4877.205,829.705286 L4880.2925,829.705286 L4878.9625,828.305393 C4879.58,827.055464 4880.7675,826.205214 4882.1925,826.205214 C4884.14,826.205214 4885.755,827.905036 4885.755,829.955 C4885.755,832.004964 4884.14,833.704786 4882.1925,833.704786 C4880.625,833.704786 4879.3425,832.655036 4878.82,831.204928 L4877.8225,831.204928 C4878.345,833.204678 4880.1025,834.705 4882.1925,834.705 C4884.71,834.705 4886.705,832.555286 4886.705,829.955 C4886.705,827.354714 4884.6625,825.205 4882.1925,825.205 L4882.1925,825.205678 L4882.1925,825.205678 Z" id="Refresh-CO-Copy-4" sketch:type="MSShapeGroup"></path>
        </g>
    </g>
</svg>