<?xml version="1.0" encoding="UTF-8"?>
<svg width="134px" height="140px" viewBox="0 0 134 140" version="1.1" xmlns="http://www.w3.org/2000/svg" xmlns:xlink="http://www.w3.org/1999/xlink">
    <title>2C252E92-9366-42EA-ADDB-F2B02FC83A9D</title>
    <defs>
        <polygon id="path-1" points="0 138.875856 126.566196 138.875856 126.566196 0.00102205533 0 0.00102205533"></polygon>
        <path d="M77.5903614,90.0301205 C66.7608923,90.0301205 57.9819277,98.8090851 57.9819277,109.638554 C57.9819277,120.468023 66.7608923,129.246988 77.5903614,129.246988 C88.4198306,129.246988 97.1987952,120.468023 97.1987952,109.638554 C97.1987952,98.8090851 88.4198306,90.0301205 77.5903614,90.0301205 Z M91.7984111,102.680723 L85.1469616,102.680723 C84.5671687,99.7230911 83.6202711,96.9624134 82.3529179,94.5526318 C86.5645407,95.8768336 89.9484977,98.9112387 91.7984111,102.680723 Z M93.0886145,112.801205 L85.6790776,112.801205 C85.8523117,110.752993 85.8640136,108.648566 85.6777334,106.475904 L93.0886145,106.475904 C93.5083773,108.554793 93.5090098,110.719311 93.0886145,112.801205 L93.0886145,112.801205 Z M73.3157229,112.801205 C73.1132342,110.706107 73.1110994,108.599386 73.3124812,106.475904 L81.8682417,106.475904 C82.0694654,108.59741 82.0676468,110.703972 81.865,112.801205 L73.3157229,112.801205 L73.3157229,112.801205 Z M81.2653614,116.596386 C80.5260128,119.921359 79.2651431,122.914729 77.5903614,125.233822 C75.9155008,122.91465 74.6547101,119.921359 73.9153614,116.596386 L81.2653614,116.596386 Z M62.0921084,106.475904 L69.5029895,106.475904 C69.3289646,108.506246 69.316314,110.609488 69.5016453,112.801205 L62.0921084,112.801205 C61.6723456,110.722395 61.6717131,108.557797 62.0921084,106.475904 Z M73.9053991,102.680723 C74.6387387,99.3619955 75.8956551,96.3826995 77.5903614,94.0405986 C79.2850678,96.3826995 80.5420633,99.3620745 81.2753238,102.680723 L73.9053991,102.680723 Z M72.8277259,94.5526318 C71.5604518,96.9624134 70.6134752,99.7230911 70.0337613,102.680723 L63.3823117,102.680723 C65.2307229,98.9143223 68.6129405,95.8778614 72.8277259,94.5526318 Z M63.3823117,116.596386 L70.0272779,116.596386 C70.6045407,119.559157 71.5490663,122.314221 72.8189495,124.721709 C68.5774398,123.385331 65.2149096,120.330448 63.3823117,116.596386 Z M82.3617733,124.721709 C83.6316566,122.314221 84.5761822,119.559157 85.153445,116.596386 L91.7984111,116.596386 C89.9627297,120.336773 86.5965625,123.387466 82.3617733,124.721709 Z" id="path-3"></path>
    </defs>
    <g id="Global-Proxy-Management" stroke="none" stroke-width="1" fill="none" fill-rule="evenodd">
        <g id="Global-Proxy-Management---Desktop" transform="translate(-655.000000, -359.000000)">
            <g id="Group" transform="translate(579.000000, 359.000000)">
                <g id="YBiDaQ4ksI9L56XqZp1GeN5jC8Puy8NWZ60rA0t28fc-Copy-10" transform="translate(76.000000, 0.000000)">
                    <path d="M94.0174669,126.442348 C86.9650379,127.877314 78.6120206,126.605877 72.1229163,125.898615 C56.836065,124.234709 41.5492134,122.570803 26.2623619,120.906897 C18.9668139,120.113781 14.8832045,112.389087 15.0551667,104.177895 C15.1283001,100.664069 16.9487281,97.7082847 16.7985082,94.241473 C16.5751549,89.1720786 13.177418,86.9746598 10.3291696,84.0311403 C8.93568237,82.5900423 7.73787631,80.5643288 7.91972145,78.3791743 C8.26562255,74.2010123 13.1734648,72.2754601 13.6478434,68.1156948 C14.1380347,63.8189741 9.68282871,61.0042338 8.77557958,56.8056306 C7.89600254,52.7419386 10.9596979,47.7379558 12.1397147,44.0728654 C13.2841532,40.5099805 14.5195142,37.2230505 16.7787424,34.4307954 C21.6015919,28.4660805 28.1578998,27.3540843 34.7675755,26.922777 C41.1025068,26.5098667 47.4354616,26.0949123 53.7684164,25.6820017 C70.7215228,24.5740938 92.238547,15.8273444 107.349483,28.3168605 C110.359811,30.804543 112.834486,34.3469869 113.380021,38.4372522 C113.897885,42.3374155 114.611429,46.0576969 112.462889,49.5592583 C111.205786,51.6095013 109.545461,53.3429071 108.383233,55.4585618 C105.600212,60.5197796 106.072614,67.028228 107.847581,72.606606 C109.624524,78.1870279 112.563695,83.2318931 114.637125,88.6876244 C116.710555,94.1433557 117.880689,100.406511 115.951549,105.92561 C114.034269,111.420179 109.711493,113.666656 106.270272,117.699687 C102.661041,121.928952 99.5617672,125.313999 94.0174669,126.442348 Z" id="Fill-1" fill="#EFEFEF" fill-rule="nonzero"></path>
                    <g id="Fill-3-Clipped" transform="translate(3.943045, 0.000000)">
                        <mask id="mask-2" fill="white">
                            <use xlink:href="#path-1"></use>
                        </mask>
                        <g id="path-1"></g>
                        <polygon id="Fill-3" fill="#FFFFFF" fill-rule="nonzero" mask="url(#mask-2)" points="16.7416126 136.831745 101.744334 136.831745 101.744334 20.117115 16.7416126 20.117115"></polygon>
                    </g>
                    <g id="Fill-5-Clipped" transform="translate(17.437021, 16.867470)" fill="#6375CC" fill-rule="nonzero">
                        <path d="M88.2495675,60.8966315 C87.1565199,60.8966315 86.2729898,59.9829142 86.2729898,58.852521 L86.2729898,5.29273377 L23.4217741,5.29273377 C22.3287267,5.29273377 21.4451964,4.37901619 21.4451964,3.24862303 C21.4451964,2.11822985 22.3287267,1.20451239 23.4217741,1.20451239 L88.2495675,1.20451239 C89.3426149,1.20451239 90.226145,2.11822985 90.226145,3.24862303 L90.226145,58.852521 C90.226145,59.9829142 89.3426149,60.8966315 88.2495675,60.8966315 M8.98089783,122.007364 L3.24684606,122.007364 C2.15379864,122.007364 1.27026842,121.093646 1.27026842,119.963253 L1.27026842,3.24862303 C1.27026842,2.11822985 2.15379864,1.20451239 3.24684606,1.20451239 L13.5388858,1.20451239 C14.6319334,1.20451239 15.5154635,2.11822985 15.5154635,3.24862303 C15.5154635,4.37901619 14.6319334,5.29273377 13.5388858,5.29273377 L5.2234237,5.29273377 L5.2234237,117.919142 L8.98089783,117.919142 C10.0739452,117.919142 10.9574755,118.834904 10.9574755,119.963253 C10.9574755,121.093646 10.0739452,122.007364 8.98089783,122.007364 M88.2495675,122.007364 L18.8637859,122.007364 C17.772715,122.007364 16.8872084,121.093646 16.8872084,119.963253 C16.8872084,118.834904 17.772715,117.919142 18.8637859,117.919142 L86.2729898,117.919142 L86.2729898,69.0730743 C86.2729898,67.9426811 87.1565199,67.0289635 88.2495675,67.0289635 C89.3426149,67.0289635 90.226145,67.9426811 90.226145,69.0730743 L90.226145,119.963253 C90.226145,121.093646 89.3426149,122.007364 88.2495675,122.007364" id="Fill-5"></path>
                    </g>
                    <g id="Fill-6-Clipped" transform="translate(54.545455, 75.903614)" fill="#B4D7FF" fill-rule="nonzero">
                        <path d="M38.9167916,4.42580076 L2.66438116,4.42580076 C1.57133376,4.42580076 0.687803459,3.51208338 0.687803459,2.38169018 C0.687803459,1.25129698 1.57133376,0.337579605 2.66438116,0.337579605 L38.9167916,0.337579605 C40.0098392,0.337579605 40.8933693,1.25129698 40.8933693,2.38169018 C40.8933693,3.51208338 40.0098392,4.42580076 38.9167916,4.42580076" id="Fill-6"></path>
                    </g>
                    <g id="Fill-9-Clipped" transform="translate(30.930997, 75.903614)" fill="#B4D7FF" fill-rule="nonzero">
                        <path d="M17.7012828,4.42580076 L1.99144359,4.42580076 C0.898396189,4.42580076 0.0148658906,3.51208338 0.0148658906,2.38169018 C0.0148658906,1.25129698 0.898396189,0.337579605 1.99144359,0.337579605 L17.7012828,0.337579605 C18.7943302,0.337579605 19.6778603,1.25129698 19.6778603,2.38169018 C19.6778603,3.51208338 18.7943302,4.42580076 17.7012828,4.42580076" id="Fill-9"></path>
                    </g>
                    <g id="Fill-10-Clipped" transform="translate(30.930997, 59.036145)" fill="#6375CC" fill-rule="nonzero">
                        <path d="M15.7247051,4.67939771 L1.99144359,4.67939771 C0.898396189,4.67939771 0.0148658906,3.76568012 0.0148658906,2.63528692 C0.0148658906,1.50489372 0.898396189,0.591176344 1.99144359,0.591176344 L15.7247051,0.591176344 C16.8177525,0.591176344 17.7012828,1.50489372 17.7012828,2.63528692 C17.7012828,3.76568012 16.8177525,4.67939771 15.7247051,4.67939771" id="Fill-10"></path>
                    </g>
                    <g id="Fill-11-Clipped" transform="translate(30.930997, 87.710843)" fill="#B4D7FF" fill-rule="nonzero">
                        <path d="M16.1743765,4.4061405 L1.99045534,4.4061405 C0.897407932,4.4061405 0.0138776331,3.49242291 0.0138776331,2.36202971 C0.0138776331,1.23163651 0.897407932,0.317919133 1.99045534,0.317919133 L16.1743765,0.317919133 C17.2674239,0.317919133 18.1509542,1.23163651 18.1509542,2.36202971 C18.1509542,3.49242291 17.2674239,4.4061405 16.1743765,4.4061405" id="Fill-11"></path>
                    </g>
                    <g id="Fill-12-Clipped" transform="translate(34.304491, 33.734940)" fill="#6375CC" fill-rule="nonzero">
                        <path d="M9.61799954,5.43614825 C9.61799954,7.7357728 7.81536066,9.60000157 5.59171084,9.60000157 C3.36806103,9.60000157 1.56542215,7.7357728 1.56542215,5.43614825 C1.56542215,3.13652369 3.36806103,1.27229493 5.59171084,1.27229493 C7.81536066,1.27229493 9.61799954,3.13652369 9.61799954,5.43614825" id="Fill-12"></path>
                    </g>
                    <g id="Fill-13-Clipped" transform="translate(30.930997, 43.855422)" fill="#6375CC" fill-rule="nonzero">
                        <path d="M17.2178118,9.63650109 C17.2178118,4.99023771 13.5749792,1.2229416 9.08221829,1.2229416 C4.58945719,1.2229416 0.946624621,4.99023771 0.946624621,9.63650109 L17.2178118,9.63650109 Z" id="Fill-13"></path>
                    </g>
                    <g id="Fill-17-Clipped" transform="translate(109.704272, 74.063527)" fill="#FF8D00" fill-rule="nonzero">
                        <path d="M3.24782068,7.24432816 L7.55280674,9.81377524 L10.0393414,5.35965812 L5.73435533,2.79021104 L3.24782068,7.24432816 Z M8.27425772,12.6039863 L0.5497922,7.99042853 L5.00895132,0 L12.7373699,4.61355775 L8.27425772,12.6039863 Z" id="Fill-17"></path>
                    </g>
                    <g id="Fill-19-Clipped" transform="translate(0.920044, 59.780942)" fill="#7AC943" fill-rule="nonzero">
                        <path d="M4.92602679,2.46841031 C3.2993034,2.46841031 1.97697295,3.77050878 1.97697295,5.37104745 C1.97697295,6.9715859 3.2993034,8.27368437 4.92602679,8.27368437 C6.5527502,8.27368437 7.87508063,6.9715859 7.87508063,5.37104745 C7.87508063,3.77050878 6.5527502,2.46841031 4.92602679,2.46841031 M4.92602679,10.3177952 C2.21020912,10.3177952 0.000395315528,8.09789104 0.000395315528,5.37104745 C0.000395315528,2.64420364 2.21020912,0.424299523 4.92602679,0.424299523 C7.64184447,0.424299523 9.85165827,2.64420364 9.85165827,5.37104745 C9.85165827,8.09789104 7.64184447,10.3177952 4.92602679,10.3177952" id="Fill-19"></path>
                    </g>
                    <g id="Fill-25-Clipped" transform="translate(3.943045, 0.000000)" fill="#FFFFFF" fill-rule="nonzero">
                        <path d="M98.4853529,17.1155429 C98.0109742,17.1155429 97.5563613,16.9295288 97.2203432,16.58203 C96.8843248,16.2345312 96.7084095,15.7664299 96.7084095,15.2758433 C96.7084095,14.7832126 96.8843248,14.3151113 97.2203432,13.9676125 C97.8923794,13.293056 99.0585603,13.293056 99.7305966,13.9676125 C100.066615,14.3151113 100.264273,14.7832126 100.264273,15.2758433 C100.264273,15.7664299 100.066615,16.2345312 99.7305966,16.58203 C99.3945785,16.9295288 98.9597313,17.1155429 98.4853529,17.1155429" id="Fill-25"></path>
                    </g>
                    <mask id="mask-4" fill="white">
                        <use xlink:href="#path-3"></use>
                    </mask>
                    <use id="1---Main-Use/globe" fill="#D3EDC0" xlink:href="#path-3"></use>
                </g>
            </g>
        </g>
    </g>
</svg>