<?xml version="1.0" encoding="UTF-8" standalone="no"?>
<svg width="26px" height="26px" viewBox="0 0 26 26" version="1.1" xmlns="http://www.w3.org/2000/svg" xmlns:xlink="http://www.w3.org/1999/xlink">
    <!-- Generator: Sketch 39.1 (31720) - http://www.bohemiancoding.com/sketch -->
    <title></title>
    <desc></desc>
    <defs></defs>
    <g id="Page-1" stroke="none" stroke-width="1" fill="none" fill-rule="evenodd">
        <g id="Group-10" transform="translate(1.000000, 1.000000)">
            <path d="M0,12 C0,18.6283859 5.37269768,24 12.0002435,24 C18.6273019,24 24,18.6283859 24,12 C24,5.37307662 18.6273014,0 12.0002435,0 C5.37269768,0 0,5.37258865 0,12 Z" id="Phone-Icon-2" stroke="#869FB1"></path>
            <path d="M7.38961005,18.0606062 C7.38961005,18.9272727 8.1493502,19.6363636 9.07792201,19.6363636 L15.8311689,19.6363636 C16.7597398,19.6363636 17.5194799,18.9272727 17.5194799,18.0606062 L17.5194799,8.60606041 L7.38961005,8.60606041 L7.38961005,18.0606062 L7.38961005,18.0606062 L7.38961005,18.0606062 Z M18.3636364,6.24242419 L15.4090902,6.24242419 L14.5649347,5.45454545 L10.3441553,5.45454545 L9.49999976,6.24242419 L6.54545455,6.24242419 L6.54545455,7.81818167 L18.3636364,7.81818167 L18.3636364,6.24242419 L18.3636364,6.24242419 L18.3636364,6.24242419 Z" id="Shape-Copy-Copy-4" fill="#869FB1"></path>
        </g>
    </g>
</svg>