<?xml version="1.0" encoding="UTF-8" standalone="no"?>
<svg width="9px" height="8px" viewBox="0 0 9 8" version="1.1" xmlns="http://www.w3.org/2000/svg" xmlns:xlink="http://www.w3.org/1999/xlink">
    <!-- Generator: Sketch 3.7 (28169) - http://www.bohemiancoding.com/sketch -->
    <title>ICON - close Copy</title>
    <desc>Created with Sketch.</desc>
    <defs></defs>
    <g id="Page-1" stroke="none" stroke-width="1" fill="none" fill-rule="evenodd">
        <g id="Desktop" transform="translate(-504.000000, -508.000000)" fill="#4F585F">
            <g id="Label/Approved-Copy" transform="translate(449.000000, 500.000000)">
                <g id="Label/Approved">
                    <g transform="translate(0.529273, 0.185801)">
                        <g transform="translate(0.000000, 0.000000)" id="ICON---close-Copy">
                            <path d="M59.7296703,11.9217391 L62.7714286,8.91304348 C62.9824176,8.70434783 62.9824176,8.36521739 62.7714286,8.15652174 C62.5604396,7.94782609 62.2175824,7.94782609 62.0065934,8.15652174 L58.9648352,11.1652174 L55.9230769,8.16521739 C55.7120879,7.95652174 55.3692308,7.95652174 55.1582418,8.16521739 C54.9472527,8.37391304 54.9472527,8.71304348 55.1582418,8.92173913 L58.2,11.9217391 L55.167033,14.9304348 C54.956044,15.1391304 54.956044,15.4782609 55.167033,15.6869565 C55.378022,15.8956522 55.7208791,15.8956522 55.9318681,15.6869565 L58.9736264,12.6782609 L62.0153846,15.6869565 C62.2263736,15.8956522 62.5692308,15.8956522 62.7802198,15.6869565 C62.9912088,15.4782609 62.9912088,15.1391304 62.7802198,14.9304348 L59.7296703,11.9217391"></path>
                        </g>
                    </g>
                </g>
            </g>
        </g>
    </g>
</svg>