<?xml version="1.0" encoding="UTF-8" standalone="no"?>
<svg width="18px" height="18px" viewBox="0 0 18 18" version="1.1" xmlns="http://www.w3.org/2000/svg" xmlns:xlink="http://www.w3.org/1999/xlink">
    <!-- Generator: Sketch 3.7.1 (28215) - http://www.bohemiancoding.com/sketch -->
    <title>search icon copy 3</title>
    <desc>Created with Sketch.</desc>
    <defs></defs>
    <g id="Symbols" stroke="none" stroke-width="1" fill="none" fill-rule="evenodd">
        <g id="Form-Field-Search-default-Copy" transform="translate(-233.000000, -13.000000)" fill="#869FB1">
            <g id="search-icon-copy-3">
                <path d="M245.773893,24.3155714 L244.955086,24.3155714 L244.651068,24.0044286 C245.674256,22.8742857 246.282294,21.3314286 246.282294,19.6844286 C246.282294,15.9828571 243.318751,13 239.641147,13 C235.963543,13 233,15.9828571 233,19.6844286 C233,23.386 235.963543,26.3688571 239.641147,26.3688571 C241.277483,26.3688571 242.81035,25.7568571 243.933175,24.727 L244.242303,25.033 L244.242303,25.8571429 L249.35186,31 L250.88345,29.4584286 L245.773893,24.3155714 L245.773893,24.3155714 Z M239.641147,24.3155714 C237.086368,24.3155714 235.046378,22.2558571 235.046378,19.6844286 C235.046378,17.113 237.086368,15.0597143 239.641147,15.0597143 C242.195925,15.0597143 244.242303,17.113 244.242303,19.6844286 C244.242303,22.2558571 242.195925,24.3155714 239.641147,24.3155714 L239.641147,24.3155714 Z"></path>
            </g>
        </g>
    </g>
</svg>